<?xml version="1.0" encoding="utf-8"?>
<!-- Generator: Adobe Illustrator 24.3.0, SVG Export Plug-In . SVG Version: 6.00 Build 0)  -->
<svg version="1.1" id="Layer_1" xmlns="http://www.w3.org/2000/svg" xmlns:xlink="http://www.w3.org/1999/xlink" x="0px" y="0px"
	 viewBox="0 0 1280 800" style="enable-background:new 0 0 1280 800;" xml:space="preserve">
<style type="text/css">
	.st0{clip-path:url(#SVGID_2_);}
	.st1{fill:#4A75F4;}
	.st2{fill:#863EEC;}
	.st3{fill:#FFFFFF;}
	.st4{display:none;fill:#FFFFFF;}
	.st5{display:none;}
	.st6{display:inline;fill:#FFFFFF;}
</style>
<g>
	<g>
		<defs>
			<path id="SVGID_1_" d="M746.9,555.5H533.1c-26.8,0-48.5-21.7-48.5-48.5V293c0-26.8,21.7-48.5,48.5-48.5h213.8
				c26.8,0,48.5,21.7,48.5,48.5v214C795.4,533.8,773.7,555.5,746.9,555.5z"/>
		</defs>
		<clipPath id="SVGID_2_">
			<use xlink:href="#SVGID_1_"  style="overflow:visible;"/>
		</clipPath>
		<g class="st0">
			<g>
				<defs>
					<rect id="SVGID_3_" x="479.6" y="239.5" width="320.8" height="321"/>
				</defs>
				<clipPath id="SVGID_4_">
					<use xlink:href="#SVGID_3_"  style="overflow:visible;"/>
				</clipPath>
				<g style="clip-path:url(#SVGID_4_);">
					
						<image style="overflow:visible;" width="669" height="670" xlink:href="D4778FDF.jpg"  transform="matrix(0.48 0 0 0.48 479.52 239.04)">
					</image>
				</g>
			</g>
		</g>
	</g>
</g>
<image style="display:none;overflow:visible;" width="1200" height="1200" xlink:href="D4778FDD.jpg"  transform="matrix(0.2596 0 0 0.2596 484.2553 244.2553)">
</image>
<g>
	<path class="st1" d="M594.9,310.7c3.1,1.1,7.9,3.2,12.7,7.5c3.8,3.4,6.2,6.9,7.7,9.5c4.6,0.2,9.9,0.8,15.8,2.1
		c4.1,0.9,7.8,2,11.1,3.2c5.8-1.3,18.8-3.4,34.2,1.3c14.8,4.5,24.2,13.1,28.4,17.4c9.4-9.4,18.8-18.8,28.1-28.2
		c-6.2-6.2-28.9-27.6-65.7-31.3C629.2,288.2,602,305.9,594.9,310.7z"/>
	<path class="st1" d="M619.4,458c3.1,7.4,8.7,18.4,18.9,29.4c10.1,10.9,20.5,17.4,27.6,21c8.4-0.9,20-3,32.8-8.5
		c16.2-7,27.5-16.4,34.2-23c-9.6-9.5-19.1-18.9-28.7-28.4c-4.1,4.2-17,16.6-38.1,19.8C641.8,471.9,623.8,460.9,619.4,458z"/>
	<path class="st2" d="M643.9,507.9c-6.8-4.5-27-19.2-36.4-47c-7-20.9-4.5-39-2.7-47.5c-3.8,1.3-8.6,3.3-13.6,6.7
		c-7.1,4.8-11.7,10.2-14.5,14c-0.3-3.3-1.9-25.4,13.4-38.5c16.6-14.2,40.8-7.2,46.2-5.7c20.5,5.9,23.3,18.1,42.8,23
		c14.3,3.6,27.3,0.7,35.5-2c-4.3,7.5-9.3,11.5-13.1,13.8c-17.8,10.7-45.4,4.6-68.9-15.5c11.6,19.3,32.3,30.4,53,28.4
		c20.9-2,33.6-16.6,36.4-20c2.3-3.4,5-8,7.1-13.9c1.3-3.8,2.1-7.4,2.6-10.4c-9.1,3.3-21.2,5.8-30.6,0.1c-5.9-3.6-7.3-8.3-13.1-15.9
		c-8.9-11.8-18.8-18.3-26.9-23.4c-19.6-12.7-41.2-15.5-55.3-15.9c0-1.8-0.3-4.6-1.9-7.3c-2.2-3.9-5.8-5.7-8.2-6.8
		c-9.3-4.5-13.9-6.7-19.1-8.3c-6.7-2.1-16.1-6.7-26.4-17.9c-1.6,4.9-3.6,13.4-2.7,24c0.9,10,4,17.6,6.3,22.2l7.5-11.4l-2.1-12.9
		c9.2,4.3,18.4,8.5,27.6,12.8c1,1.2,3,3.9,3.6,8c0.6,3.6-0.2,6.5-0.6,8c-1.5-3.6-3.4-5.7-4.8-6.8c-1.3-1.1-2.5-1.7-7.5-4
		c-2.6-1.2-5-2.3-7.2-3.3c-0.1,2.6,0,6.5,1.4,10.9c1,3.5,2.5,6.2,3.7,8.2c-1.5-0.7-3.3-1.9-5.1-3.6c-3.2-2.9-4.8-6.2-5.6-8.2
		c-5.4,8.1-12.1,20.7-15.5,37.2c-6.8,33.7,5.2,61,10.1,70.8c6.1,11,22.7,37.3,55.1,50.7C625.3,505,635.5,507,643.9,507.9z"/>
	<path class="st3" d="M652.8,365.7c2.2,1.5,4.7,3.1,7.4,4.7c3,1.7,5.9,3.2,8.6,4.5c1.9,1,5.1,3,7.9,6.9c2.3,3.2,3.4,6.3,3.8,8.3
		c-3.2-1.8-6.5-3.6-10-5.3c-3.1-1.6-6.2-3-9.2-4.3c-1.5-1.3-3.3-3.3-4.9-5.9C654.3,371.1,653.3,367.9,652.8,365.7z"/>
</g>
<image style="display:none;overflow:visible;" width="788" height="270" xlink:href="D4778FE3.jpg"  transform="matrix(1 0 0 1 83 1)">
</image>
<path class="st4" d="M640.9,359.1c2.7,1.9,5.6,3.7,8.9,5.6c3.6,2.1,7.1,3.9,10.3,5.4c2.2,1.2,6.2,3.7,9.5,8.3c2.8,3.9,4,7.6,4.6,10
	c-3.8-2.1-7.8-4.3-12.1-6.4c-3.8-1.9-7.5-3.6-11.1-5.2c-1.7-1.6-3.9-4-5.9-7.1C642.7,365.5,641.5,361.7,640.9,359.1z"/>
<g class="st5">
	<path class="st6" d="M595,311.1c3.1,1.1,7.9,3.2,12.6,7.4c3.8,3.4,6.2,6.9,7.6,9.4c4.6,0.2,9.9,0.8,15.7,2.1c4.1,0.9,7.8,2,11,3.2
		c5.8-1.3,18.8-3.4,34.1,1.3c14.7,4.5,24.1,13,28.2,17.3c9.3-9.4,18.7-18.8,28-28.1c-6.1-6.2-28.8-27.5-65.4-31.2
		C629.1,288.7,601.9,306.3,595,311.1z"/>
	<path class="st6" d="M619.3,457.8c3.1,7.3,8.7,18.3,18.8,29.3c10,10.8,20.4,17.3,27.5,20.9c8.3-0.9,19.9-3,32.7-8.5
		c16.2-7,27.4-16.4,34.1-22.9c-9.5-9.4-19.1-18.9-28.6-28.3c-4,4.2-17,16.5-37.9,19.7C641.7,471.6,623.7,460.6,619.3,457.8z"/>
	<path class="st6" d="M643.8,507.4c-6.8-4.5-26.9-19.1-36.2-46.8c-7-20.8-4.4-38.9-2.7-47.3c-3.7,1.3-8.5,3.3-13.6,6.7
		c-7,4.7-11.7,10.1-14.4,14c-0.3-3.2-1.9-25.3,13.3-38.4c16.5-14.1,40.6-7.2,46-5.7c20.4,5.9,23.2,18,42.6,22.9
		c14.3,3.6,27.2,0.7,35.4-2c-4.3,7.5-9.3,11.5-13,13.7c-17.7,10.7-45.2,4.6-68.6-15.4c11.6,19.2,32.2,30.3,52.8,28.3
		c20.8-2,33.4-16.5,36.2-20c2.3-3.3,5-8,7.1-13.9c1.3-3.8,2.1-7.3,2.5-10.3c-9.1,3.3-21.1,5.8-30.4,0.1c-5.8-3.5-7.3-8.2-13-15.8
		c-8.9-11.8-18.8-18.2-26.7-23.4c-19.5-12.7-41-15.5-55-15.8c0-1.8-0.3-4.6-1.9-7.3c-2.2-3.9-5.8-5.7-8.1-6.8
		c-9.2-4.4-13.9-6.6-19-8.3c-6.7-2.1-16-6.7-26.3-17.8c-1.6,4.9-3.6,13.4-2.7,23.9c0.9,9.9,4,17.5,6.2,22.1l7.5-11.3l-2.1-12.9
		c9.2,4.2,18.3,8.5,27.5,12.7c1,1.2,2.9,3.9,3.6,7.9c0.6,3.6-0.2,6.5-0.6,7.9c-1.4-3.6-3.4-5.7-4.7-6.8c-1.3-1.1-2.5-1.7-7.4-4
		c-2.6-1.2-5-2.3-7.2-3.3c-0.1,2.6,0,6.5,1.3,10.9c1,3.5,2.5,6.2,3.7,8.1c-1.5-0.7-3.3-1.9-5.1-3.5c-3.2-2.9-4.8-6.1-5.6-8.1
		c-5.4,8.1-12.1,20.6-15.4,37.1c-6.8,33.6,5.2,60.8,10,70.5c6.1,11,22.6,37.2,54.9,50.5C625.2,504.6,635.4,506.6,643.8,507.4z"/>
</g>
<g>
	<path class="st3" d="M594.9,310.7c3.1,1.1,7.9,3.2,12.7,7.5c3.8,3.4,6.2,6.9,7.7,9.5c4.6,0.2,9.9,0.8,15.8,2.1
		c4.1,0.9,7.8,2,11.1,3.2c5.8-1.3,18.8-3.4,34.2,1.3c14.8,4.5,24.2,13.1,28.4,17.4c9.4-9.4,18.8-18.8,28.1-28.2
		c-6.2-6.2-28.9-27.6-65.7-31.3C629.2,288.2,602,305.9,594.9,310.7z"/>
	<path class="st3" d="M619.4,458c3.1,7.4,8.7,18.4,18.9,29.4c10.1,10.9,20.5,17.4,27.6,21c8.4-0.9,20-3,32.8-8.5
		c16.2-7,27.5-16.4,34.2-23c-9.6-9.5-19.1-18.9-28.7-28.4c-4.1,4.2-17,16.6-38.1,19.8C641.8,471.9,623.8,460.9,619.4,458z"/>
	<path class="st3" d="M643.9,507.9c-6.8-4.5-27-19.2-36.4-47c-7-20.9-4.5-39-2.7-47.5c-3.8,1.3-8.6,3.3-13.6,6.7
		c-7.1,4.8-11.7,10.2-14.5,14c-0.3-3.3-1.9-25.4,13.4-38.5c16.6-14.2,40.8-7.2,46.2-5.7c20.5,5.9,23.3,18.1,42.8,23
		c14.3,3.6,27.3,0.7,35.5-2c-4.3,7.5-9.3,11.5-13.1,13.8c-17.8,10.7-45.4,4.6-68.9-15.5c11.6,19.3,32.3,30.4,53,28.4
		c20.9-2,33.6-16.6,36.4-20c2.3-3.4,5-8,7.1-13.9c1.3-3.8,2.1-7.4,2.6-10.4c-9.1,3.3-21.2,5.8-30.6,0.1c-5.9-3.6-7.3-8.3-13.1-15.9
		c-8.9-11.8-18.8-18.3-26.9-23.4c-19.6-12.7-41.2-15.5-55.3-15.9c0-1.8-0.3-4.6-1.9-7.3c-2.2-3.9-5.8-5.7-8.2-6.8
		c-9.3-4.5-13.9-6.7-19.1-8.3c-6.7-2.1-16.1-6.7-26.4-17.9c-1.6,4.9-3.6,13.4-2.7,24c0.9,10,4,17.6,6.3,22.2l7.5-11.4l-2.1-12.9
		c9.2,4.3,18.4,8.5,27.6,12.8c1,1.2,3,3.9,3.6,8c0.6,3.6-0.2,6.5-0.6,8c-1.5-3.6-3.4-5.7-4.8-6.8c-1.3-1.1-2.5-1.7-7.5-4
		c-2.6-1.2-5-2.3-7.2-3.3c-0.1,2.6,0,6.5,1.4,10.9c1,3.5,2.5,6.2,3.7,8.2c-1.5-0.7-3.3-1.9-5.1-3.6c-3.2-2.9-4.8-6.2-5.6-8.2
		c-5.4,8.1-12.1,20.7-15.5,37.2c-6.8,33.7,5.2,61,10.1,70.8c6.1,11,22.7,37.3,55.1,50.7C625.3,505,635.5,507,643.9,507.9z"/>
	<path class="st2" d="M652.8,365.7c2.2,1.5,4.7,3.1,7.4,4.7c3,1.7,5.9,3.2,8.6,4.5c1.9,1,5.1,3,7.9,6.9c2.3,3.2,3.4,6.3,3.8,8.3
		c-3.2-1.8-6.5-3.6-10-5.3c-3.1-1.6-6.2-3-9.2-4.3c-1.5-1.3-3.3-3.3-4.9-5.9C654.3,371.1,653.3,367.9,652.8,365.7z"/>
</g>
<g>
</g>
<g>
</g>
<g>
</g>
<g>
</g>
<g>
</g>
<g>
</g>
<g>
</g>
<g>
</g>
<g>
</g>
<g>
</g>
<g>
</g>
<g>
</g>
<g>
</g>
<g>
</g>
<g>
</g>
</svg>
